<svg width="48" height="46" viewBox="0 0 48 46" fill="none" xmlns="http://www.w3.org/2000/svg">
<path d="M24 0C10.74 0 0 10.5598 0 23.5836C0 34.0055 6.876 42.8434 16.41 45.9593C17.61 46.1813 18.05 45.4513 18.05 44.8253C18.05 44.2653 18.03 42.7814 18.02 40.8154C11.344 42.2374 9.936 37.6514 9.936 37.6514C8.844 34.9295 7.266 34.2015 7.266 34.2015C5.092 32.7395 7.434 32.7695 7.434 32.7695C9.844 32.9335 11.11 35.1995 11.11 35.1995C13.25 38.8054 16.728 37.7634 18.1 37.1614C18.316 35.6355 18.934 34.5975 19.62 34.0075C14.29 33.4175 8.688 31.3895 8.688 22.3537C8.688 19.7797 9.618 17.6757 11.158 16.0258C10.888 15.4298 10.078 13.0318 11.368 9.78385C11.368 9.78385 13.378 9.15186 17.968 12.2018C19.888 11.6778 21.928 11.4178 23.968 11.4058C26.008 11.4178 28.048 11.6778 29.968 12.2018C34.528 9.15186 36.538 9.78385 36.538 9.78385C37.828 13.0318 37.018 15.4298 36.778 16.0258C38.308 17.6757 39.238 19.7797 39.238 22.3537C39.238 31.4135 33.628 33.4075 28.288 33.9875C29.128 34.6955 29.908 36.1415 29.908 38.3514C29.908 41.5074 29.878 44.0433 29.878 44.8093C29.878 45.4273 30.298 46.1653 31.528 45.9293C41.13 42.8334 48 33.9895 48 23.5836C48 10.5598 37.254 0 24 0Z" fill="#212121"/>
</svg>
